<svg width="33" height="34" viewBox="0 0 33 34" fill="none" xmlns="http://www.w3.org/2000/svg">
<path opacity="0.4" d="M27.3244 11.7592C27.3244 12.3367 27.2844 12.9004 27.2178 13.4367C26.6044 13.1617 25.9378 13.0104 25.2311 13.0104C23.6045 13.0104 22.1645 13.8217 21.2711 15.0592C20.3645 13.8217 18.9244 13.0104 17.2978 13.0104C14.5644 13.0104 12.3511 15.3067 12.3511 18.1529C12.3511 21.8379 14.2444 24.6567 16.3511 26.5679C16.2844 26.6092 16.2178 26.623 16.1511 26.6505C15.7511 26.8017 15.0844 26.8017 14.6844 26.6505C11.2311 25.4267 3.51111 20.3667 3.51111 11.7592C3.51111 7.96419 6.4711 4.89795 10.1244 4.89795C12.2978 4.89795 14.2178 5.97044 15.4178 7.63419C16.6311 5.97044 18.5511 4.89795 20.7111 4.89795C24.3644 4.89795 27.3244 7.96419 27.3244 11.7592Z" stroke="#292D32" stroke-width="1.5" stroke-linecap="round" stroke-linejoin="round"/>
<path d="M30.1779 18.1527C30.1779 24.5877 24.4045 28.3827 21.8179 29.2902C21.5112 29.4002 21.0178 29.4002 20.7112 29.2902C19.6045 28.9052 17.9112 27.984 16.3512 26.5677C14.2445 24.6565 12.3512 21.8377 12.3512 18.1527C12.3512 15.3065 14.5645 13.0103 17.2979 13.0103C18.9245 13.0103 20.3645 13.8215 21.2712 15.059C22.1645 13.8215 23.6045 13.0103 25.2312 13.0103C25.9379 13.0103 26.6045 13.1615 27.2179 13.4365C28.9645 14.234 30.1779 16.0352 30.1779 18.1527Z" stroke="#292D32" stroke-width="1.5" stroke-linecap="round" stroke-linejoin="round"/>
</svg>
