<svg width="38" height="38" viewBox="0 0 38 38" fill="none" xmlns="http://www.w3.org/2000/svg">
<path d="M24.3676 8.249L26.6 12.714C26.9009 13.3315 27.7084 13.9173 28.3892 14.044L32.4267 14.709C35.0076 15.1365 35.6092 17.0048 33.7567 18.8732L30.6059 22.024C30.0834 22.5465 29.7826 23.5757 29.9567 24.3198L30.8592 28.2148C31.5717 31.2865 29.925 32.4898 27.2175 30.8748L23.4334 28.6265C22.7525 28.2148 21.6125 28.2148 20.9317 28.6265L17.1475 30.8748C14.44 32.474 12.7934 31.2865 13.5059 28.2148L14.4084 24.3198C14.5826 23.5915 14.2817 22.5623 13.7592 22.024L10.6084 18.8732C8.7559 17.0207 9.35756 15.1523 11.9384 14.709L15.9759 14.044C16.6567 13.9332 17.4642 13.3315 17.765 12.714L19.9976 8.249C21.1851 5.8265 23.1484 5.8265 24.3676 8.249Z" stroke="white" stroke-width="1.5" stroke-linecap="round" stroke-linejoin="round"/>
<path opacity="0.4" d="M12.6666 7.9165H3.16663" stroke="white" stroke-width="1.5" stroke-linecap="round" stroke-linejoin="round"/>
<path opacity="0.4" d="M7.91663 30.0835H3.16663" stroke="white" stroke-width="1.5" stroke-linecap="round" stroke-linejoin="round"/>
<path opacity="0.4" d="M4.74996 19H3.16663" stroke="white" stroke-width="1.5" stroke-linecap="round" stroke-linejoin="round"/>
</svg>
