<svg width="30" height="26" viewBox="0 0 30 26" fill="none" xmlns="http://www.w3.org/2000/svg">
<path fill-rule="evenodd" clip-rule="evenodd" d="M21.5695 9.9582C22.0043 9.52342 22.0043 8.81849 21.5695 8.38371C21.1347 7.94892 20.4298 7.94892 19.995 8.38371L16.8349 11.5438C16.246 11.2143 15.5672 11.0265 14.8444 11.0265C12.5899 11.0265 10.7622 12.8542 10.7622 15.1088C10.7622 17.3633 12.5899 19.191 14.8444 19.191C17.099 19.191 18.9267 17.3633 18.9267 15.1088C18.9267 14.386 18.7389 13.7072 18.4094 13.1183L21.5695 9.9582ZM12.9889 15.1088C12.9889 14.084 13.8196 13.2532 14.8444 13.2532C15.8692 13.2532 16.7 14.084 16.7 15.1088C16.7 16.1336 15.8692 16.9643 14.8444 16.9643C13.8196 16.9643 12.9889 16.1336 12.9889 15.1088Z" fill="#838383"/>
<path fill-rule="evenodd" clip-rule="evenodd" d="M14.8445 2.86193C8.08082 2.86193 2.59777 8.34498 2.59777 15.1087C2.59777 18.4951 3.97076 21.5587 6.19313 23.7768C6.62833 24.2111 6.62901 24.9161 6.19464 25.3513C5.76027 25.7865 5.05535 25.7871 4.62014 25.3528C1.99639 22.7341 0.371094 19.1101 0.371094 15.1087C0.371094 7.11522 6.85106 0.635254 14.8445 0.635254C22.8379 0.635254 29.3179 7.11522 29.3179 15.1087C29.3179 19.1051 27.6967 22.7249 25.0787 25.3429C24.6439 25.7777 23.939 25.7777 23.5042 25.3429C23.0695 24.9081 23.0695 24.2032 23.5042 23.7684C25.7217 21.551 27.0912 18.4908 27.0912 15.1087C27.0912 8.34498 21.6082 2.86193 14.8445 2.86193Z" fill="#838383"/>
</svg>
